<svg xmlns="http://www.w3.org/2000/svg" width="1280" height="390" viewBox="0 0 1280 390" role="img" aria-labelledby="title desc">
<title id="title">Benjamin Ortega — Software Developer, IoT y transformación digital</title>
<desc id="desc">Banner con una red de nodos que conecta una interfaz, una base de datos y un sensor.</desc>
<defs>
  <linearGradient id="bg" x1="0" y1="0" x2="1" y2="1"><stop stop-color="#F8FAFC"/><stop offset="1" stop-color="#FFFFFF"/></linearGradient>
  <linearGradient id="line" x1="0" y1="0" x2="1" y2="0"><stop stop-color="#007F9E"/><stop offset="1" stop-color="#E33333"/></linearGradient>
  <radialGradient id="glow"><stop stop-color="#007F9E" stop-opacity=".24"/><stop offset="1" stop-color="#007F9E" stop-opacity="0"/></radialGradient>
  <pattern id="grid" width="32" height="32" patternUnits="userSpaceOnUse"><path d="M32 0H0V32" fill="none" stroke="#D9E1E8" stroke-width="1"/></pattern>
  <filter id="shadow" x="-30%" y="-30%" width="160%" height="160%"><feDropShadow dx="0" dy="10" stdDeviation="14" flood-color="#000" flood-opacity=".22"/></filter>
</defs>
<rect width="1280" height="390" rx="28" fill="url(#bg)"/>
<rect width="1280" height="390" rx="28" fill="url(#grid)" opacity=".75"/>
<circle cx="1040" cy="166" r="260" fill="url(#glow)"/>
<path d="M28 300C220 294 224 225 389 236S565 330 744 264 944 115 1248 139" fill="none" stroke="url(#line)" stroke-width="3" opacity=".82"/>
<path d="M748 265L842 196 944 220 1047 133 1155 182" fill="none" stroke="#586270" stroke-width="1.5" stroke-dasharray="6 9" opacity=".7"/>
<g font-family="Inter,Segoe UI,Arial,sans-serif">
  <text x="72" y="90" fill="#007F9E" font-size="16" font-weight="700" letter-spacing="4">SOFTWARE · DATA · DEVICES</text>
  <text x="72" y="164" fill="#12171D" font-size="58" font-weight="800">Benjamin Ortega</text>
  <text x="72" y="208" fill="#586270" font-size="25" font-weight="600">Software Developer · IoT Builder · Digital Transformation</text>
  <text x="72" y="254" fill="#12171D" font-size="18">Building connected digital experiences — from interface to sensor.</text>
  <g transform="translate(72 290)">
    <rect width="196" height="42" rx="21" fill="#007F9E" fill-opacity=".12" stroke="#007F9E" stroke-opacity=".55"/>
    <circle cx="22" cy="21" r="6" fill="#007F9E"/><text x="38" y="27" fill="#12171D" font-size="15" font-weight="650">Chillán, Chile</text>
    <rect x="212" width="260" height="42" rx="21" fill="#E33333" fill-opacity=".10" stroke="#E33333" stroke-opacity=".55"/>
    <circle cx="234" cy="21" r="6" fill="#E33333"/><text x="250" y="27" fill="#12171D" font-size="15" font-weight="650">Disponible para práctica</text>
  </g>
</g>
<g filter="url(#shadow)">
  <rect x="790" y="58" width="244" height="148" rx="18" fill="#FFFFFF" stroke="#586270" stroke-opacity=".26"/>
  <rect x="810" y="80" width="204" height="18" rx="9" fill="#D9E1E8"/>
  <circle cx="825" cy="89" r="4" fill="#E33333"/><circle cx="840" cy="89" r="4" fill="#007F9E"/>
  <path d="M817 132h72m-72 21h132m-132 21h104" stroke="#586270" stroke-width="7" stroke-linecap="round" opacity=".65"/>
  <path d="M918 121l19 16 25-34 27 22" fill="none" stroke="#007F9E" stroke-width="4" stroke-linecap="round" stroke-linejoin="round"/>
</g>
<g filter="url(#shadow)">
  <ellipse cx="1106" cy="92" rx="62" ry="23" fill="#FFFFFF" stroke="#007F9E" stroke-width="2"/>
  <path d="M1044 92v67c0 13 28 23 62 23s62-10 62-23V92" fill="#FFFFFF" stroke="#007F9E" stroke-width="2"/>
  <path d="M1044 124c0 13 28 23 62 23s62-10 62-23" fill="none" stroke="#007F9E" stroke-width="2" opacity=".7"/>
  <ellipse cx="1106" cy="92" rx="62" ry="23" fill="none" stroke="#007F9E" stroke-width="2"/>
</g>
<g filter="url(#shadow)" transform="translate(902 246)">
  <rect width="184" height="88" rx="18" fill="#FFFFFF" stroke="#E33333" stroke-opacity=".8"/>
  <circle cx="42" cy="44" r="20" fill="#E33333" fill-opacity=".14" stroke="#E33333"/>
  <path d="M42 31v25m-12-12h24" stroke="#E33333" stroke-width="3" stroke-linecap="round"/>
  <text x="76" y="39" fill="#12171D" font-family="Inter,Segoe UI,Arial" font-size="14" font-weight="700">SENSOR NODE</text>
  <text x="76" y="61" fill="#586270" font-family="Inter,Segoe UI,Arial" font-size="12">MQTT · realtime</text>
</g>
<g fill="#007F9E"><circle cx="744" cy="264" r="6"/><circle cx="842" cy="196" r="6"/><circle cx="944" cy="220" r="6"/><circle cx="1047" cy="133" r="6"/></g>
<circle cx="1155" cy="182" r="7" fill="#E33333"/>
</svg>