<svg xmlns="http://www.w3.org/2000/svg" width="800" height="340" viewBox="0 0 800 340" role="img" aria-labelledby="title desc"><title id="title">Invernadero IoT</title><desc id="desc">Sensores · automatización · MQTT</desc><defs><linearGradient id="bg" x1="0" y1="0" x2="1" y2="1"><stop stop-color="#080A0D"/><stop offset="1" stop-color="#12171D"/></linearGradient><linearGradient id="a" x1="0" x2="1"><stop stop-color="#59E391"/><stop offset="1" stop-color="#00C8FF"/></linearGradient><pattern id="grid" width="28" height="28" patternUnits="userSpaceOnUse"><path d="M28 0H0V28" fill="none" stroke="#26303A" stroke-width="1"/></pattern></defs><rect width="800" height="340" rx="28" fill="url(#bg)"/><rect width="800" height="340" rx="28" fill="url(#grid)" opacity=".52"/><circle cx="690" cy="40" r="130" fill="#59E391" opacity=".07"/><g font-family="Inter,Segoe UI,Arial,sans-serif"><text x="52" y="80" fill="#59E391" font-size="14" font-weight="750" letter-spacing="3">PROJECT CASE</text><text x="52" y="126" fill="#E8EDF2" font-size="32" font-weight="800">Invernadero IoT</text><text x="52" y="159" fill="#89939E" font-size="16">Sensores · automatización · MQTT</text><rect x="52" y="196" width="286" height="2" fill="url(#a)"/><text x="52" y="239" fill="#E8EDF2" font-size="15" font-weight="650">Interfaces · datos · sistemas reales</text><text x="52" y="272" fill="#89939E" font-size="13">Benjamin Ortega / selected work</text></g>
<g transform="translate(430 50)">
 <rect width="310" height="236" rx="24" fill="#10191D" stroke="#29414A"/>
 <path d="M48 175c40-81 72-64 103-10 25-70 55-65 111 10" fill="none" stroke="#59E391" stroke-width="4" stroke-linecap="round"/>
 <path d="M73 169v-67m0 0l-18 21m18-21l19 21M151 165V75m0 0l-21 25m21-25l22 25M235 169v-52m0 0l-16 18m16-18l17 18" stroke="#4A7D58" stroke-width="6" stroke-linecap="round"/>
 <rect x="37" y="182" width="236" height="27" rx="13" fill="#1B2C25"/>
 <rect x="115" y="24" width="80" height="46" rx="14" fill="#15262B" stroke="#00C8FF"/>
 <circle cx="137" cy="47" r="8" fill="#00C8FF"/><path d="M154 40h24m-24 14h15" stroke="#9CB5BC" stroke-width="5" stroke-linecap="round"/>
 <path d="M155 70v23" stroke="#00C8FF" stroke-width="2" stroke-dasharray="4 4"/>
</g></svg>